<?xml version="1.0" encoding="UTF-8" standalone="no"?>
<svg
   viewBox="0 0 172.29001 145.495"
   version="1.1"
   id="svg61"
   sodipodi:docname="W.svg"
   width="172.28999"
   height="145.495"
   inkscape:version="1.1.1 (1:1.1+202109281949+c3084ef5ed)"
   xmlns:inkscape="http://www.inkscape.org/namespaces/inkscape"
   xmlns:sodipodi="http://sodipodi.sourceforge.net/DTD/sodipodi-0.dtd"
   xmlns="http://www.w3.org/2000/svg"
   xmlns:svg="http://www.w3.org/2000/svg">
  <sodipodi:namedview
     id="namedview63"
     pagecolor="#ffffff"
     bordercolor="#666666"
     borderopacity="1.0"
     inkscape:pageshadow="2"
     inkscape:pageopacity="0.0"
     inkscape:pagecheckerboard="0"
     showgrid="false"
     inkscape:zoom="0.4075031"
     inkscape:cx="858.88917"
     inkscape:cy="23.312706"
     inkscape:window-width="1864"
     inkscape:window-height="1016"
     inkscape:window-x="1976"
     inkscape:window-y="27"
     inkscape:window-maximized="1"
     inkscape:current-layer="svg61"
     showguides="false" />
  <defs
     id="defs7">
    <style
       id="style2">.cls-1{fill:none;}.cls-2{fill:#f9fbfc;}.cls-3{fill:#1d262d;}.cls-4{clip-path:url(#clip-path);}.cls-5{fill:#cb222a;}.cls-6{fill:#c92677;}.cls-7{fill:#f1e83b;}.cls-8{fill:#6eb053;}.cls-9{fill:#416fb2;}.cls-10{fill:#802c83;}.cls-11{fill:#d0592e;}.cls-12{fill:#9bc24d;}.cls-13{fill:#8fc8d6;}</style>
    <clipPath
       id="clip-path">
      <rect
         class="cls-1"
         x="358.85999"
         y="987.54999"
         width="178.8"
         height="179.7"
         id="rect4" />
    </clipPath>
  </defs>
  <path
     class="cls-3"
     d="M 279.31,97.404983 V 119.81498 H 197.9 V 17.264983 h 79.55 v 22.42 h -51.17 v 17.28 h 45.06 v 21.68 h -45.06 v 18.76 z"
     id="path14" />
  <path
     class="cls-3"
     d="m 399.02,91.684983 c 0,17.729997 -14.49,28.129997 -41.72,28.129997 H 302.53 V 17.264983 h 51.87 c 26.66,0 39.7,11 39.7,26.81 0,9.82 -4.93,17.73 -13.62,22.27 11.42,4.1 18.54,12.89 18.54,25.34 z m -68.12,-53.47 v 19.78 h 19.7 c 9.56,0 14.49,-3.37 14.49,-10 0,-6.63 -4.93,-9.82 -14.49,-9.82 z m 39.11,50.25 c 0,-7 -5.21,-10.4 -15.06,-10.4 H 330.9 v 20.8 h 24.05 c 9.88,0 15.09,-3.37 15.09,-10.4 z"
     id="path16" />
  <path
     class="cls-3"
     d="m 465.44,68.544983 c 0,-31.2 23.62,-53.32 55.78,-53.32 18.69,0 33.76,6.88 43.61,19.33 l -18.25,16.7 c -6.38,-7.76 -14.2,-12 -23.91,-12 -16.66,0 -28.25,11.72 -28.25,29.3 0,17.58 11.59,29.29 28.25,29.29 9.71,0 17.53,-4.24 23.91,-12 l 18.25,16.699997 c -9.85,12.45 -24.92,19.34 -43.61,19.34 -32.16,-0.02 -55.78,-22.139997 -55.78,-53.339997 z"
     id="path18" />
  <path
     class="cls-3"
     d="M 629.2,92.564983 H 613.55 V 119.81498 H 584.9 V 17.264983 h 46.37 c 27.67,0 45.06,14.51 45.06,38 0,15.09 -7.25,26.22 -19.85,32.37 l 21.88,32.229997 H 647.6 Z m 0.29,-52.44 h -15.94 v 30 h 15.94 c 11.88,0 17.82,-5.57 17.82,-14.94 0,-9.37 -5.94,-15.04 -17.82,-15.04 z"
     id="path20" />
  <path
     class="cls-3"
     d="M 780.79,97.404983 V 119.81498 H 699.36 V 17.264983 h 79.54 v 22.42 h -51.15 v 17.28 h 45.06 v 21.68 h -45.06 v 18.76 z"
     id="path22" />
  <path
     class="cls-3"
     d="m 871.97,99.894983 h -42.89 l -8,19.919997 H 791.81 L 836.58,17.264983 H 864.9 L 909.82002,119.81498 H 879.9 Z m -8.41,-21.39 -13,-32.81 -13,32.81 z"
     id="path24" />
  <path
     class="cls-3"
     d="m 941.70002,40.264983 h -31.16 v -23 H 1001.39 v 23 h -30.99998 v 79.549997 h -28.69 z"
     id="path26" />
  <path
     class="cls-3"
     d="m 1012.72,68.544983 c 0,-30.77 23.91,-53.32 56.36,-53.32 32.45,0 56.37,22.55 56.37,53.32 0,30.77 -23.91,53.319997 -56.37,53.319997 -32.46,0 -56.36,-22.559997 -56.36,-53.319997 z m 83.75,0 c 0,-17.73 -12,-29.3 -27.39,-29.3 -15.39,0 -27.38,11.57 -27.38,29.3 0,17.73 12,29.29 27.38,29.29 15.38,0 27.39,-11.57 27.39,-29.29 z"
     id="path28" />
  <path
     class="cls-3"
     d="m 1192.14,92.564983 h -15.65 V 119.81498 H 1147.8 V 17.264983 h 46.37 c 27.67,0 45.06,14.51 45.06,38 0,15.09 -7.25,26.22 -19.85,32.37 l 21.88,32.229997 h -30.72 z m 0.29,-52.44 h -15.94 v 30 h 15.94 c 11.88,0 17.82,-5.57 17.82,-14.94 0,-9.37 -5.94,-15.04 -17.82,-15.04 z"
     id="path30" />
  <path
     class="cls-3"
     d="m 1255.21,110.58498 9.41,-21.389997 a 63.43,63.43 0 0 0 33.47,10.11 c 11.88,0 16.52,-3.37 16.52,-8.35 0,-16.26 -57.66,-4.39 -57.66,-42.48 0,-18.31 14.78,-33.25 44.91,-33.25 13.18,0 26.8,3.07 36.8,8.93 l -8.84,21.54 c -9.7,-5.28 -19.27,-7.92 -28.11,-7.92 -12,0 -16.37,4.11 -16.37,9.23 0,15.68 57.52,4 57.52,41.75 0,17.869997 -14.78,33.109997 -44.91,33.109997 -16.67,0 -33.18,-4.54 -42.74,-11.28 z"
     id="path32" />
  <path
     class="cls-3"
     d="M 1509.23,17.264983 V 119.81498 h -28.68 V 79.814983 h -39.12 v 39.999997 h -28.69 V 17.264983 h 28.69 v 38.53 h 39.12 v -38.53 z"
     id="path34" />
  <path
     class="cls-3"
     d="m 1535.95,74.144983 v -56.84 h 28.68 v 56 c 0,17.58 7.25,24.61 19.27,24.61 12.02,0 19.13,-7 19.13,-24.61 v -56 h 28.25 v 56.84 c 0,30.619997 -17.67,47.759997 -47.67,47.759997 -30,0 -47.66,-17.18 -47.66,-47.759997 z"
     id="path36" />
  <path
     class="cls-3"
     d="m 1754.48,91.684983 c 0,17.729997 -14.49,28.129997 -41.74,28.129997 h -54.76 V 17.264983 h 51.92 c 26.66,0 39.69,11 39.69,26.81 0,9.82 -4.92,17.73 -13.61,22.27 11.39,4.1 18.5,12.89 18.5,25.34 z m -68.1,-53.47 v 19.78 h 19.7 c 9.56,0 14.48,-3.37 14.48,-10 0,-6.63 -4.92,-9.82 -14.48,-9.82 z m 39.12,50.25 c 0,-7 -5.22,-10.4 -15.08,-10.4 h -24 v 20.8 h 24 c 9.86,0 15.08,-3.37 15.08,-10.4 z"
     id="path38" />
  <g
     class="cls-4"
     clip-path="url(#clip-path)"
     id="g58"
     transform="translate(-362.1,-1008.855)">
    <path
       class="cls-5"
       d="m 534.33,1124.94 v 0.13 c -0.57,2.55 -1.95,2.13 -3.52,1.31 -2.4,-1.27 -4.72,-2.68 -7.07,-4.05 -2.35,-1.37 -4.59,-2.69 -6.88,-4 l -7.8,-4.55 q -3.37,-2 -6.76,-3.92 c -1.86,-1.08 -3.8,-2 -5.58,-3.23 a 5.15,5.15 0 0 1 -2.41,-4.4 q 0,-19.89 0,-39.77 a 6.6,6.6 0 0 1 0.25,-1.61 c 0.27,-1.08 1,-1.27 2.32,-0.7 a 40.77,40.77 0 0 1 3.9,2.12 c 2,1.14 4,2.36 6.06,3.53 q 4.24,2.48 8.51,4.92 c 2.09,1.2 4.22,2.35 6.3,3.58 3.32,2 6.75,3.68 10,5.78 a 6.56,6.56 0 0 1 2.74,3.85 z"
       id="path40" />
    <path
       class="cls-6"
       d="m 534.33,1073.1 a 4.42,4.42 0 0 1 -0.13,0.92 c -0.4,1.1 -0.88,2.1 -2.4,1.44 a 54.32,54.32 0 0 1 -4.93,-2.65 c -2.43,-1.35 -4.82,-2.79 -7.22,-4.19 l -7.78,-4.53 -6.8,-3.95 c -2.8,-1.62 -5.62,-3.22 -8.41,-4.88 a 4.82,4.82 0 0 1 -2.35,-4.4 c 0,-6.69 -0.21,-13.38 -0.2,-20.07 0,-6.17 0,-12.35 0,-18.53 a 11.5,11.5 0 0 1 0.19,-2 c 0.22,-1.2 1.17,-1.68 2.48,-1.25 a 19.9,19.9 0 0 1 3.68,1.87 c 2.42,1.37 4.82,2.78 7.23,4.17 l 8.42,4.88 c 2.11,1.21 4.23,2.39 6.34,3.61 3,1.76 6.18,3.35 9.12,5.27 a 5.34,5.34 0 0 1 2.62,3.86 c 0,0.06 0.1,0.11 0.15,0.17 z"
       id="path42" />
    <path
       class="cls-7"
       d="m 491.3,1154.35 c -4.84,-1.89 -9.06,-4.92 -13.53,-7.48 -5,-2.84 -9.94,-5.75 -14.91,-8.63 -2.17,-1.27 -4.37,-2.51 -6.49,-3.86 -0.77,-0.49 -1.68,-1 -1.68,-2.22 0,-1.22 0.79,-1.56 1.45,-2 2.62,-1.78 5.4,-3.31 8.13,-4.92 l 8.52,-5.06 8.41,-4.94 c 2.56,-1.52 5.16,-3 7.67,-4.58 a 6.11,6.11 0 0 1 7,0 c 3.26,2 6.55,3.93 9.83,5.88 3.28,1.95 6.5,3.9 9.78,5.82 2.22,1.29 4.47,2.53 6.72,3.79 l 5.13,2.82 c 0.62,0.34 1.3,0.54 1.89,0.94 a 2.28,2.28 0 0 1 -0.15,4 c -5.22,2.81 -10.26,5.93 -15.38,8.93 -4.11,2.41 -8.26,4.76 -12.39,7.14 l -6.25,3.63 c -0.66,0.38 -1.43,0.41 -2.11,0.72 z"
       id="path44" />
    <path
       class="cls-8"
       d="m 362.1,1083.41 c 0.69,-1.94 2.37,-2.81 4,-3.76 l 10.27,-6 9.73,-5.63 c 3,-1.77 6.09,-3.57 9.15,-5.34 1.09,-0.63 2.21,-1.24 3.33,-1.83 a 3.31,3.31 0 0 1 1.05,-0.38 c 1.38,-0.2 2.16,0.5 2.18,2.11 0,2.09 0.2,4.18 0.2,6.27 0,10.88 0,21.76 0,32.63 a 6.1,6.1 0 0 1 -3.37,5.7 c -4.78,2.72 -9.56,5.44 -14.29,8.25 -4.28,2.56 -8.63,5 -12.94,7.51 -1.74,1 -3.46,2.09 -5.21,3.09 a 6.76,6.76 0 0 1 -1.79,0.71 c -1.23,0.29 -2.09,0.06 -2.21,-1.39 0,-0.42 -0.08,-0.94 -0.08,-1.25 z"
       id="path46" />
    <path
       class="cls-9"
       d="m 362.19,1032.44 a 1.29,1.29 0 0 1 0.07,-0.43 c 0.78,-2 2.62,-2.83 4.32,-3.81 4.15,-2.41 8.28,-4.85 12.42,-7.26 3.75,-2.17 7.51,-4.34 11.27,-6.48 2.88,-1.64 5.69,-3.41 8.65,-4.91 a 2.42,2.42 0 0 1 0.36,-0.18 c 1.73,-0.59 2.53,-0.3 2.62,1.76 0.34,8.1 0.2,16.2 0.14,24.3 0,2.73 0,5.46 -0.12,8.19 -0.13,2.13 -0.17,4 -0.47,6.13 -0.62,2.62 -0.64,4.87 -3.11,6.28 -5.15,2.93 -10.3,5.86 -15.39,8.89 -4.19,2.49 -8.43,4.9 -12.64,7.34 -1.66,1 -3.3,1.93 -5,2.9 l -0.22,0.1 c -1.82,0.78 -2.74,0.33 -2.76,-1.76 -0.05,-5.62 0,-11.24 0,-16.85 0,-0.25 0,-0.6 0,-0.79 0,-0.19 0,-0.35 0,-0.57 0.53,-7.6 -0.13,-15.22 -0.14,-22.85 z"
       id="path48" />
    <path
       class="cls-10"
       d="m 404.31,1154.18 c -2,0.11 -3.42,-0.92 -4.94,-1.8 -2.56,-1.5 -5.12,-3 -7.68,-4.5 q -4.24,-2.48 -8.48,-4.91 c -2.76,-1.59 -5.54,-3.15 -8.29,-4.74 -2.75,-1.59 -5.4,-3.07 -8,-4.71 -2,-1.21 -1.2,-2.46 0.1,-3.24 3.68,-2.2 7.42,-4.3 11.14,-6.45 4.2,-2.44 8.38,-4.92 12.61,-7.31 q 5.28,-3 10.54,-6 c 2.46,-1.42 4.58,-0.85 6.74,0.4 2.83,1.64 5.63,3.31 8.44,5 3.67,2.17 7.33,4.36 11,6.52 3.42,2 6.86,4 10.28,6 a 28,28 0 0 1 3.83,2.41 c 0.9,0.76 1,1.46 0,2.31 a 56.24,56.24 0 0 1 -6.26,3.89 c -2.73,1.69 -5.53,3.27 -8.3,4.89 -2.47,1.44 -5,2.87 -7.41,4.32 -2.73,1.6 -5.41,3.26 -8.17,4.81 -1.94,1.09 -3.71,2.52 -5.95,3 -0.51,0.11 -0.87,0.05 -1.2,0.11 z"
       id="path50" />
    <path
       class="cls-11"
       d="m 406.38,1078.52 c 0,-6.34 0,-12.68 0,-19 a 5.51,5.51 0 0 1 3,-5.2 c 4.76,-2.72 9.46,-5.52 14.2,-8.28 5,-2.9 10,-5.76 15,-8.67 1.42,-0.83 2.81,-1.71 4.27,-2.49 a 3.92,3.92 0 0 1 1.28,-0.45 c 1.06,-0.13 1.55,0.42 1.83,1.8 a 3,3 0 0 1 0,0.67 q 0,17.61 0,35.22 c 0,1.24 0.19,2.46 0.19,3.7 a 6.8,6.8 0 0 1 -3.75,6.3 c -4.93,2.79 -9.85,5.62 -14.76,8.43 -3.77,2.16 -7.55,4.31 -11.3,6.5 -1.88,1.11 -3.7,2.33 -5.56,3.48 a 4.2,4.2 0 0 1 -2.32,0.84 1.69,1.69 0 0 1 -1.87,-1.6 20.85,20.85 0 0 1 -0.2,-2.37 c 0,-6.31 -0.01,-12.59 -0.01,-18.88 z"
       id="path52" />
    <path
       class="cls-12"
       d="m 450.41,1057.16 q 0,-9.35 0,-18.68 a 8.08,8.08 0 0 1 0.34,-2.5 1.57,1.57 0 0 1 2.21,-1.14 c 1.93,0.58 3.48,1.85 5.18,2.86 3.12,1.84 6.21,3.75 9.35,5.58 4.75,2.76 9.53,5.48 14.32,8.2 1.7,1 3.48,1.77 5.13,2.83 a 6.11,6.11 0 0 1 2.86,5.36 c 0,1.85 0.05,3.71 0,5.56 0,1.32 -0.2,2.64 -0.15,4 0.38,9.68 0.06,19.36 0.16,29 0,0.34 -0.08,0.7 -0.11,1 -0.15,1.92 -1.62,2.07 -3,1.34 -2.07,-1.12 -4.11,-2.31 -6.15,-3.49 -2.52,-1.47 -5,-3 -7.56,-4.45 -3.65,-2.14 -7.28,-4.31 -10.94,-6.42 -3.05,-1.76 -6.14,-3.46 -9.12,-5.34 a 5.29,5.29 0 0 1 -2.52,-4.73 c -0.01,-6.3 0,-12.64 0,-18.98 z"
       id="path54" />
    <path
       class="cls-13"
       d="m 448.41,1084.72 c 1.8,-0.08 3.2,0.94 4.66,1.78 3.2,1.85 6.37,3.73 9.55,5.59 q 4.17,2.45 8.35,4.88 l 8.15,4.73 c 1.86,1.09 3.72,2.18 5.56,3.31 1,0.61 1.33,1.42 0.93,2.08 a 3.51,3.51 0 0 1 -1.28,1.14 l -7.69,4.39 c -3,1.69 -5.92,3.41 -8.89,5.1 -2.58,1.48 -5.18,2.93 -7.77,4.41 -2.92,1.66 -5.81,3.37 -8.74,5 a 14.67,14.67 0 0 1 -2.6,1.22 c -1,0.31 -1.8,-0.3 -2.64,-0.67 a 69.1,69.1 0 0 1 -6.24,-3.46 c -3,-1.71 -6,-3.5 -9,-5.26 -4.52,-2.65 -9,-5.33 -13.57,-8 -1.86,-1.08 -3.78,-2.08 -5.57,-3.29 -1.22,-0.83 -1.26,-1.88 -0.05,-2.68 1.21,-0.8 2.42,-1.48 3.66,-2.18 3.86,-2.17 7.71,-4.34 11.52,-6.6 3.34,-2 6.73,-3.87 10.08,-5.82 2.57,-1.5 5.12,-3 7.68,-4.55 a 7,7 0 0 1 3.9,-1.12 z"
       id="path56" />
  </g>
</svg>
